:version 1.10
:name ASF
:units
  mass 1
  length 1
  angle deg
:documentation
  ASF file generated by Kaydara
:root
  axis xyz
  order  tx ty tz rx ry rz
  position 0 0 0
  orientation 0 0 0
:bonedata
  begin
    id 1
    name RightUpLegDummy
    direction -1 2.30186e-007 8.31532e-007
    length 4.46685
    axis 0 0 0 xyz
  end
  begin
    id 2
    name RightUpLeg
    direction -2.30187e-007 -1 1.24343e-010
    length 16.4045
    axis -3.49089 -0.000906625 0.000286804 xyz
    dof rx ry rz
  end
  begin
    id 3
    name RightLeg
    direction -2.30181e-007 -1 -4.17157e-009
    length 17.5097
    axis 3.68512 0.0193738 -0.131023 xyz
    dof rx ry rz
  end
  begin
    id 4
    name RightFoot
    direction 8.31421e-007 -4.51202e-011 1
    length 6.49508
    axis 4.81691e-005 -0.120479 -0.188788 xyz
    dof rx ry rz
  end
  begin
    id 5
    name RightToes
    direction 0.00124746 -0.014064 0.9999
    length 3.85082
    axis 0.000481921 0.542163 -0.142578 xyz
    dof rx ry rz
  end
  begin
    id 6
    name SpineDummy
    direction 0.0717043 0.9409 -0.331007
    length 10.0032
    axis 0 0 0 xyz
  end
  begin
    id 7
    name Spine
    direction 2.30186e-007 1 4.58806e-011
    length 9.84055
    axis -0.001389 0.000121418 2.40972e-006 xyz
    dof rx ry rz
  end
  begin
    id 8
    name Spine1
    direction 0 0 0
    length 0
    axis -0.001389 0.000121451 1.30017e-006 xyz
    dof rx ry rz
  end
  begin
    id 9
    name HEadDummy
    direction -0.00347485 0.950688 -0.310128
    length 8.00997
    axis -0.001389 0.000121451 1.30017e-006 xyz
  end
  begin
    id 10
    name HEad
    direction -0.0222688 0.980941 0.193023
    length 5.12695
    axis -0.001389 0.000121451 1.30017e-006 xyz
    dof rx ry rz
  end
  begin
    id 11
    name LeftShoulder1Dummy
    direction 0.988871 0.146793 -0.0242004
    length 3.5792
    axis -0.001389 0.000121451 1.30017e-006 xyz
  end
  begin
    id 12
    name LeftShoulder1
    direction 0.993832 0.108932 0.020779
    length 4.16823
    axis -0.001389 0.000121451 1.30017e-006 xyz
    dof rx ry rz
  end
  begin
    id 13
    name LeftArm
    direction 1 3.44807e-006 -8.31404e-007
    length 9.91437
    axis -23.1894 0.134784 0.967509 xyz
    dof rx ry rz
  end
  begin
    id 14
    name LeftForeArm
    direction 1 3.44842e-006 -8.31581e-007
    length 9.08575
    axis -9.91835 -0.06569 -0.177793 xyz
    dof rx ry rz
  end
  begin
    id 15
    name LeftHand
    direction 0.992938 -0.0411636 0.11126
    length 5.32135
    axis -0.00960232 -0.00340091 0.185173 xyz
    dof rx ry rz
  end
  begin
    id 16
    name RightShoulderDummy
    direction -0.988871 0.146793 -0.0241962
    length 3.5792
    axis -0.001389 0.000121451 1.30017e-006 xyz
  end
  begin
    id 17
    name RightShoulder
    direction -0.993832 0.108933 0.0207785
    length 4.16823
    axis 0.215806 0.000203643 -0.0068026 xyz
    dof rx ry rz
  end
  begin
    id 18
    name RightArm
    direction -1 3.90912e-006 8.31284e-007
    length 9.91437
    axis -23.2009 -0.134239 -0.964101 xyz
    dof rx ry rz
  end
  begin
    id 19
    name RightForeArm
    direction -1 3.90882e-006 8.31502e-007
    length 9.08575
    axis -9.92322 0.0658061 0.178867 xyz
    dof rx ry rz
  end
  begin
    id 20
    name RightHand
    direction -0.992843 -0.0414603 0.112003
    length 5.28593
    axis -0.00960638 0.00330671 -0.185228 xyz
    dof rx ry rz
  end
  begin
    id 21
    name LeftUpLegDummy
    direction 1 -2.30186e-007 -8.31532e-007
    length 4.46685
    axis 0 0 0 xyz
  end
  begin
    id 22
    name LeftUpLeg
    direction -2.30187e-007 -1 6.00931e-010
    length 16.4045
    axis -3.48766 0.00143442 -0.000524262 xyz
    dof rx ry rz
  end
  begin
    id 23
    name LeftLeg
    direction -2.30187e-007 -1 1.6669e-009
    length 17.5097
    axis 3.68178 -0.00654042 -0.000285133 xyz
    dof rx ry rz
  end
  begin
    id 24
    name LeftFoot
    direction 8.31532e-007 -4.54478e-011 1
    length 6.49508
    axis 1.87233e-006 4.66016e-005 -8.6538e-006 xyz
    dof rx ry rz
  end
  begin
    id 25
    name LeftToes
    direction 0.00818058 -0.00485161 0.999955
    length 3.85048
    axis 1.06247e-005 4.65869e-005 -8.65513e-006 xyz
    dof rx ry rz
  end
:hierarchy
  begin
    root RightUpLegDummy SpineDummy LeftUpLegDummy
    RightUpLegDummy RightUpLeg
    RightUpLeg RightLeg
    RightLeg RightFoot
    RightFoot RightToes
    SpineDummy Spine
    Spine Spine1
    Spine1 HEadDummy LeftShoulder1Dummy RightShoulderDummy
    HEadDummy HEad
    LeftShoulder1Dummy LeftShoulder1
    LeftShoulder1 LeftArm
    LeftArm LeftForeArm
    LeftForeArm LeftHand
    RightShoulderDummy RightShoulder
    RightShoulder RightArm
    RightArm RightForeArm
    RightForeArm RightHand
    LeftUpLegDummy LeftUpLeg
    LeftUpLeg LeftLeg
    LeftLeg LeftFoot
    LeftFoot LeftToes
  end

:SAMPLES-PER-SECOND 30
:FULLY-SPECIFIED
:DEGREES
1
root  48.4732 33.918 0.4818 -179.042 -21.5352 177.69
RightUpLeg  1.13138 -5.09146 -5.54314
RightLeg  11.7361 0.691933 0.0990837
RightFoot  -1.1158 0.00443133 -0.0115262
RightToes  -35.1742 -0.188622 -0.282453
Spine  4.657 -2.36254 0.874066
Spine1  9.16872 -4.64207 1.22446
HEad  36.2232 25.7433 -3.21161
LeftShoulder1  0 -2.42657e-020 -4.95415e-022
LeftArm  -49.3387 14.974 -87.4095
LeftForeArm  56.0819 -19.3618 -3.50945
LeftHand  0.543026 -9.77996 -6.89899
RightShoulder  0 2.42657e-020 1.07489e-018
RightArm  -55.9323 -26.3059 86.6147
RightForeArm  -22.8949 62.241 19.4851
RightHand  3.81511 16.9361 25.5989
LeftUpLeg  -3.37256 9.53994 0.986628
LeftLeg  7.37926 -7.88495 -0.508772
LeftFoot  7.35769 0.0594167 -1.04368
LeftToes  -15.9719 1.28829e-006 1.15665e-007
2
root  48.5163 33.9241 0.451016 -178.865 -21.6196 177.671
RightUpLeg  1.07642 -5.24135 -5.48359
RightLeg  11.5802 0.729283 0.102364
RightFoot  -1.0195 0.00443133 -0.0115262
RightToes  -35.2112 -0.188622 -0.282453
Spine  4.7206 -2.39005 0.969287
Spine1  9.30024 -4.69575 1.37757
HEad  37.1428 26.9322 -3.29868
LeftShoulder1  0 -2.42657e-020 -4.95415e-022
LeftArm  -49.2437 15.0677 -87.3084
LeftForeArm  56.1848 -19.5807 -3.55264
LeftHand  0.539028 -9.78629 -6.74805
RightShoulder  0 2.42657e-020 1.07489e-018
RightArm  -56.8457 -26.7948 85.5105
RightForeArm  -18.3263 65.4171 22.6033
RightHand  3.68687 17.0552 24.6081
LeftUpLeg  -3.44291 9.51882 1.02074
LeftLeg  7.19027 -7.937 -0.485884
LeftFoot  7.49408 0.061221 -1.07172
LeftToes  -16.0993 1.28829e-006 1.15665e-007
3
root  48.5611 33.9313 0.422436 -178.603 -21.6036 177.669
RightUpLeg  0.895983 -5.05031 -5.33571
RightLeg  11.4438 0.495278 0.0687254
RightFoot  -0.95181 0.00443133 -0.0115262
RightToes  -35.0029 -0.188622 -0.282453
Spine  4.75531 -2.36734 1.05634
Spine1  9.37362 -4.6445 1.51112
HEad  38.1595 27.9973 -2.87531
LeftShoulder1  0 -2.42657e-020 -4.95415e-022
LeftArm  -49.2318 15.0743 -87.1112
LeftForeArm  56.3211 -19.5377 -3.54383
LeftHand  0.539062 -9.77907 -6.74202
RightShoulder  0 2.42657e-020 1.07489e-018
RightArm  -57.9338 -27.5246 84.5792
RightForeArm  -10.1558 69.6564 28.375
RightHand  3.40775 17.1761 22.6641
LeftUpLeg  -3.6639 9.62984 1.06639
LeftLeg  7.14472 -8.01651 -0.48433
LeftFoot  7.54224 0.0624947 -1.09152
LeftToes  -16.1211 1.28829e-006 1.15665e-007
4
root  48.5922 33.9368 0.39162 -178.303 -21.5933 177.656
RightUpLeg  0.707203 -4.81413 -5.2131
RightLeg  11.2896 0.233556 0.032442
RightFoot  -0.920102 0.00443133 -0.0115262
RightToes  -34.9167 -0.188622 -0.282453
Spine  4.77209 -2.36366 1.13579
Spine1  9.41257 -4.62904 1.62536
HEad  39.1356 29.094 -2.41918
LeftShoulder1  0 -2.42657e-020 -4.95415e-022
LeftArm  -49.3487 15.2068 -86.9378
LeftForeArm  56.475 -19.5941 -3.5547
LeftHand  0.534641 -9.88855 -6.67905
RightShoulder  0 2.42657e-020 1.07489e-018
RightArm  -59.2609 -28.2519 83.8066
RightForeArm  3.75582 74.2289 38.7223
RightHand  3.25846 17.8567 20.9015
LeftUpLeg  -3.882 9.53863 1.06642
LeftLeg  7.04271 -7.90506 -0.463563
LeftFoot  7.6058 0.0622382 -1.08753
LeftToes  -16.2365 1.28829e-006 1.15665e-007
5
root  48.6109 33.9411 0.3594 -177.998 -21.6033 177.642
RightUpLeg  0.505961 -4.50263 -5.09
RightLeg  11.1431 -0.176157 -0.0217834
RightFoot  -0.741486 0.00443133 -0.0115262
RightToes  -35.113 -0.188622 -0.282453
Spine  4.78285 -2.42393 1.21024
Spine1  9.43917 -4.7354 1.71289
HEad  40.1014 30.235 -1.92688
LeftShoulder1  0 -2.42657e-020 -4.95415e-022
LeftArm  -49.6125 15.5242 -86.8227
LeftForeArm  56.6787 -19.8877 -3.61271
LeftHand  0.535129 -9.85778 -6.66649
RightShoulder  0 2.42657e-020 1.07489e-018
RightArm  -60.5501 -28.7691 83.1722
RightForeArm  28.2087 78.2877 58.729
RightHand  3.08322 18.8622 18.7824
LeftUpLeg  -4.15351 9.48266 1.04301
LeftLeg  7.04225 -7.82795 -0.459013
LeftFoot  7.63073 0.0619071 -1.08239
LeftToes  -16.5085 1.28829e-006 1.15665e-007
6
root  48.6181 33.9523 0.33142 -177.716 -21.5877 177.651
RightUpLeg  0.383264 -4.07795 -4.94946
RightLeg  10.8764 -0.681629 -0.0846888
RightFoot  -0.637972 0.00443133 -0.0115262
RightToes  -34.4649 -0.188622 -0.282453
Spine  4.84228 -2.48989 1.27823
Spine1  9.56179 -4.84745 1.77337
HEad  40.9792 31.2669 -1.39323
LeftShoulder1  0 -2.42657e-020 -4.95415e-022
LeftArm  -49.7712 15.812 -86.7452
LeftForeArm  56.6286 -20.2747 -3.69018
LeftHand  0.532798 -9.84241 -6.55648
RightShoulder  0 2.42657e-020 1.07489e-018
RightArm  -61.4418 -28.9048 82.5868
RightForeArm  68.8485 79.9034 93.1051
RightHand  2.73586 20.2012 15.6448
LeftUpLeg  -4.45546 9.24654 1.00847
LeftLeg  7.13959 -7.51184 -0.4534
LeftFoot  7.58561 0.0588566 -1.03497
LeftToes  -16.325 1.28829e-006 1.15665e-007
7
root  48.6154 33.9583 0.333457 -177.26 -21.5793 177.655
RightUpLeg  0.0834691 -4.27897 -4.92413
RightLeg  10.5549 -0.587274 -0.0694122
RightFoot  -0.394895 0.00480724 -0.0173628
RightToes  -34.784 -0.188622 -0.282453
Spine  4.8386 -2.58724 1.33619
Spine1  9.55819 -5.01866 1.81185
HEad  41.7176 32.0866 -0.713659
LeftShoulder1  0 -2.42657e-020 -4.95415e-022
LeftArm  -49.9092 16.2837 -86.757
LeftForeArm  56.3617 -20.9276 -3.82216
LeftHand  0.540128 -9.78102 -6.68092
RightShoulder  0 2.42657e-020 1.07489e-018
RightArm  -61.3366 -28.7847 81.6778
RightForeArm  106.843 77.8551 123.999
RightHand  2.32453 21.6596 12.4813
LeftUpLeg  -5.09843 8.89636 0.893163
LeftLeg  7.47779 -7.07601 -0.469147
LeftFoot  7.45118 0.0540324 -0.959993
LeftToes  -16.2459 1.28829e-006 1.15665e-007
8
root  48.6309 33.9656 0.351371 -176.838 -21.3047 177.822
RightUpLeg  -0.38892 -3.65128 -4.66391
RightLeg  10.3333 -0.95463 -0.109892
RightFoot  -0.130797 0.00509671 -0.0218574
RightToes  -34.7998 -0.188622 -0.282453
Spine  4.86018 -2.59472 1.41268
Spine1  9.60001 -5.00043 1.86736
HEad  42.4186 32.4991 -0.0365105
LeftShoulder1  0 -2.42657e-020 -4.95415e-022
LeftArm  -49.6964 16.77 -86.7902
LeftForeArm  55.9403 -21.7674 -3.99387
LeftHand  0.555943 -9.86811 -6.8078
RightShoulder  0 2.42657e-020 1.07489e-018
RightArm  -59.6085 -28.449 80.3099
RightForeArm  131.114 74.2785 140.523
RightHand  1.76484 23.1947 8.95662
LeftUpLeg  -5.99163 9.02704 0.962906
LeftLeg  8.25533 -6.85065 -0.547632
LeftFoot  7.12783 0.0496706 -0.892202
LeftToes  -16.1411 1.28829e-006 1.15665e-007
9
root  48.632 33.965 0.40118 -176.374 -20.9728 177.976
RightUpLeg  -0.97333 -3.04646 -4.42097
RightLeg  10.1409 -1.43059 -0.160453
RightFoot  0.115433 0.00551622 -0.028371
RightToes  -34.5718 -0.188622 -0.282453
Spine  4.96383 -2.53762 1.46442
Spine1  9.80287 -4.84655 1.86464
HEad  42.8342 32.3664 0.358207
LeftShoulder1  0 -2.42657e-020 -4.95415e-022
LeftArm  -49.204 16.9572 -86.8366
LeftForeArm  55.5661 -22.7268 -4.19236
LeftHand  0.568779 -9.9744 -6.88568
RightShoulder  0 2.42657e-020 1.07489e-018
RightArm  -56.4157 -27.7416 78.7966
RightForeArm  148.839 70.9059 148.781
RightHand  0.998214 24.4262 4.98071
LeftUpLeg  -7.21768 8.82434 0.959991
LeftLeg  9.52611 -6.23067 -0.637572
LeftFoot  6.6563 0.0413151 -0.762342
LeftToes  -16.0619 1.28829e-006 1.15665e-007
10
root  48.6116 33.9584 0.506557 -175.949 -20.6585 178.105
RightUpLeg  -1.84398 -2.60016 -4.38154
RightLeg  10.4949 -1.49548 -0.177177
RightFoot  0.266164 0.00568977 -0.0310658
RightToes  -35.3934 -0.188622 -0.28765
Spine  5.17013 -2.39358 1.55137
Spine1  10.2003 -4.49865 1.88074
HEad  42.9014 31.706 0.269502
LeftShoulder1  0 -2.42657e-020 -4.95415e-022
LeftArm  -48.4055 16.702 -86.9725
LeftForeArm  55.2251 -23.5547 -4.36602
LeftHand  0.590108 -10.0875 -7.05343
RightShoulder  0 2.42657e-020 1.07489e-018
RightArm  -51.1191 -26.9974 77.0503
RightForeArm  161.988 68.6029 152.705
RightHand  -0.106256 24.5206 -0.118976
LeftUpLeg  -8.94809 8.58079 0.866783
LeftLeg  11.7258 -5.54813 -0.784167
LeftFoot  5.91211 0.0314454 -0.608954
LeftToes  -15.505 1.28829e-006 1.15665e-007
11
root  48.5706 33.9313 0.778566 -174.927 -20.3204 178.058
RightUpLeg  -4.02685 -2.28343 -4.5811
RightLeg  11.8471 -1.58701 -0.226342
RightFoot  0.0758267 0.00493468 -0.0193416
RightToes  -36.1684 -0.188621 -0.292471
Spine  5.35173 -2.0575 1.69018
Spine1  10.5454 -3.7731 2.02694
HEad  42.5117 30.39 -0.645139
LeftShoulder1  0 -2.42657e-020 -4.95415e-022
LeftArm  -47.1977 15.5505 -87.3106
LeftForeArm  55.0204 -23.7949 -4.41702
LeftHand  0.596801 -10.1219 -7.10597
RightShoulder  0 2.42657e-020 1.07489e-018
RightArm  -44.7818 -25.8054 75.471
RightForeArm  170.366 68.7545 152.483
RightHand  -1.40611 25.1628 -5.92561
LeftUpLeg  -12.3735 8.98786 0.338163
LeftLeg  15.5894 -5.28201 -1.11392
LeftFoot  5.06665 0.0248242 -0.498997
LeftToes  -14.7807 1.28829e-006 1.15665e-007
